FullBodyModel_MuscleActuatedLowerLimb_TorqueActuatedUpperBody_states
version=1
nRows=4
nColumns=205
inDegrees=yes

# SIMM Motion File Header:
name FullBodyModel_MuscleActuatedLowerLimb_TorqueActuatedUpperBody_states
datacolumns 205
datarows 4
otherdata 1
range 0.75670788 0.76031778
endheader
time	/jointset/ground_pelvis/pelvis_tilt/value	/jointset/ground_pelvis/pelvis_tilt/speed	/jointset/ground_pelvis/pelvis_list/value	/jointset/ground_pelvis/pelvis_list/speed	/jointset/ground_pelvis/pelvis_rotation/value	/jointset/ground_pelvis/pelvis_rotation/speed	/jointset/ground_pelvis/pelvis_tx/value	/jointset/ground_pelvis/pelvis_tx/speed	/jointset/ground_pelvis/pelvis_ty/value	/jointset/ground_pelvis/pelvis_ty/speed	/jointset/ground_pelvis/pelvis_tz/value	/jointset/ground_pelvis/pelvis_tz/speed	/jointset/hip_r/hip_flexion_r/value	/jointset/hip_r/hip_flexion_r/speed	/jointset/hip_r/hip_adduction_r/value	/jointset/hip_r/hip_adduction_r/speed	/jointset/hip_r/hip_rotation_r/value	/jointset/hip_r/hip_rotation_r/speed	/jointset/walker_knee_r/knee_angle_r/value	/jointset/walker_knee_r/knee_angle_r/speed	/jointset/patellofemoral_r/knee_angle_r_beta/value	/jointset/patellofemoral_r/knee_angle_r_beta/speed	/jointset/ankle_r/ankle_angle_r/value	/jointset/ankle_r/ankle_angle_r/speed	/jointset/subtalar_r/subtalar_angle_r/value	/jointset/subtalar_r/subtalar_angle_r/speed	/jointset/mtp_r/mtp_angle_r/value	/jointset/mtp_r/mtp_angle_r/speed	/jointset/hip_l/hip_flexion_l/value	/jointset/hip_l/hip_flexion_l/speed	/jointset/hip_l/hip_adduction_l/value	/jointset/hip_l/hip_adduction_l/speed	/jointset/hip_l/hip_rotation_l/value	/jointset/hip_l/hip_rotation_l/speed	/jointset/walker_knee_l/knee_angle_l/value	/jointset/walker_knee_l/knee_angle_l/speed	/jointset/patellofemoral_l/knee_angle_l_beta/value	/jointset/patellofemoral_l/knee_angle_l_beta/speed	/jointset/ankle_l/ankle_angle_l/value	/jointset/ankle_l/ankle_angle_l/speed	/jointset/subtalar_l/subtalar_angle_l/value	/jointset/subtalar_l/subtalar_angle_l/speed	/jointset/mtp_l/mtp_angle_l/value	/jointset/mtp_l/mtp_angle_l/speed	/jointset/back/lumbar_extension/value	/jointset/back/lumbar_extension/speed	/jointset/back/lumbar_bending/value	/jointset/back/lumbar_bending/speed	/jointset/back/lumbar_rotation/value	/jointset/back/lumbar_rotation/speed	/jointset/acromial_r/arm_flex_r/value	/jointset/acromial_r/arm_flex_r/speed	/jointset/acromial_r/arm_add_r/value	/jointset/acromial_r/arm_add_r/speed	/jointset/acromial_r/arm_rot_r/value	/jointset/acromial_r/arm_rot_r/speed	/jointset/elbow_r/elbow_flex_r/value	/jointset/elbow_r/elbow_flex_r/speed	/jointset/radioulnar_r/pro_sup_r/value	/jointset/radioulnar_r/pro_sup_r/speed	/jointset/radius_hand_r/wrist_flex_r/value	/jointset/radius_hand_r/wrist_flex_r/speed	/jointset/radius_hand_r/wrist_dev_r/value	/jointset/radius_hand_r/wrist_dev_r/speed	/jointset/acromial_l/arm_flex_l/value	/jointset/acromial_l/arm_flex_l/speed	/jointset/acromial_l/arm_add_l/value	/jointset/acromial_l/arm_add_l/speed	/jointset/acromial_l/arm_rot_l/value	/jointset/acromial_l/arm_rot_l/speed	/jointset/elbow_l/elbow_flex_l/value	/jointset/elbow_l/elbow_flex_l/speed	/jointset/radioulnar_l/pro_sup_l/value	/jointset/radioulnar_l/pro_sup_l/speed	/jointset/radius_hand_l/wrist_flex_l/value	/jointset/radius_hand_l/wrist_flex_l/speed	/jointset/radius_hand_l/wrist_dev_l/value	/jointset/radius_hand_l/wrist_dev_l/speed	/forceset/addbrev_r/activation	/forceset/addlong_r/activation	/forceset/addlong_r/fiber_length	/forceset/addmagDist_r/activation	/forceset/addmagIsch_r/activation	/forceset/addmagIsch_r/fiber_length	/forceset/addmagMid_r/activation	/forceset/addmagProx_r/activation	/forceset/bflh_r/activation	/forceset/bflh_r/fiber_length	/forceset/bfsh_r/activation	/forceset/edl_r/activation	/forceset/edl_r/fiber_length	/forceset/ehl_r/activation	/forceset/ehl_r/fiber_length	/forceset/fdl_r/activation	/forceset/fdl_r/fiber_length	/forceset/fhl_r/activation	/forceset/fhl_r/fiber_length	/forceset/gaslat_r/activation	/forceset/gaslat_r/fiber_length	/forceset/gasmed_r/activation	/forceset/gasmed_r/fiber_length	/forceset/glmax1_r/activation	/forceset/glmax2_r/activation	/forceset/glmax3_r/activation	/forceset/glmed1_r/activation	/forceset/glmed2_r/activation	/forceset/glmed3_r/activation	/forceset/glmin1_r/activation	/forceset/glmin2_r/activation	/forceset/glmin3_r/activation	/forceset/glmin3_r/fiber_length	/forceset/grac_r/activation	/forceset/iliacus_r/activation	/forceset/perbrev_r/activation	/forceset/perbrev_r/fiber_length	/forceset/perlong_r/activation	/forceset/perlong_r/fiber_length	/forceset/piri_r/activation	/forceset/piri_r/fiber_length	/forceset/psoas_r/activation	/forceset/recfem_r/activation	/forceset/recfem_r/fiber_length	/forceset/sart_r/activation	/forceset/semimem_r/activation	/forceset/semimem_r/fiber_length	/forceset/semiten_r/activation	/forceset/semiten_r/fiber_length	/forceset/soleus_r/activation	/forceset/soleus_r/fiber_length	/forceset/tfl_r/activation	/forceset/tfl_r/fiber_length	/forceset/tibant_r/activation	/forceset/tibant_r/fiber_length	/forceset/tibpost_r/activation	/forceset/tibpost_r/fiber_length	/forceset/vasint_r/activation	/forceset/vasint_r/fiber_length	/forceset/vaslat_r/activation	/forceset/vaslat_r/fiber_length	/forceset/vasmed_r/activation	/forceset/vasmed_r/fiber_length	/forceset/addbrev_l/activation	/forceset/addlong_l/activation	/forceset/addlong_l/fiber_length	/forceset/addmagDist_l/activation	/forceset/addmagIsch_l/activation	/forceset/addmagIsch_l/fiber_length	/forceset/addmagMid_l/activation	/forceset/addmagProx_l/activation	/forceset/bflh_l/activation	/forceset/bflh_l/fiber_length	/forceset/bfsh_l/activation	/forceset/edl_l/activation	/forceset/edl_l/fiber_length	/forceset/ehl_l/activation	/forceset/ehl_l/fiber_length	/forceset/fdl_l/activation	/forceset/fdl_l/fiber_length	/forceset/fhl_l/activation	/forceset/fhl_l/fiber_length	/forceset/gaslat_l/activation	/forceset/gaslat_l/fiber_length	/forceset/gasmed_l/activation	/forceset/gasmed_l/fiber_length	/forceset/glmax1_l/activation	/forceset/glmax2_l/activation	/forceset/glmax3_l/activation	/forceset/glmed1_l/activation	/forceset/glmed2_l/activation	/forceset/glmed3_l/activation	/forceset/glmin1_l/activation	/forceset/glmin2_l/activation	/forceset/glmin3_l/activation	/forceset/glmin3_l/fiber_length	/forceset/grac_l/activation	/forceset/iliacus_l/activation	/forceset/perbrev_l/activation	/forceset/perbrev_l/fiber_length	/forceset/perlong_l/activation	/forceset/perlong_l/fiber_length	/forceset/piri_l/activation	/forceset/piri_l/fiber_length	/forceset/psoas_l/activation	/forceset/recfem_l/activation	/forceset/recfem_l/fiber_length	/forceset/sart_l/activation	/forceset/semimem_l/activation	/forceset/semimem_l/fiber_length	/forceset/semiten_l/activation	/forceset/semiten_l/fiber_length	/forceset/soleus_l/activation	/forceset/soleus_l/fiber_length	/forceset/tfl_l/activation	/forceset/tfl_l/fiber_length	/forceset/tibant_l/activation	/forceset/tibant_l/fiber_length	/forceset/tibpost_l/activation	/forceset/tibpost_l/fiber_length	/forceset/vasint_l/activation	/forceset/vasint_l/fiber_length	/forceset/vaslat_l/activation	/forceset/vaslat_l/fiber_length	/forceset/vasmed_l/activation	/forceset/vasmed_l/fiber_length
      0.75670788	      4.05955034	    -13.77636843	     -0.00000000	     -0.00000000	     -0.00000000	     -0.00000000	      0.01025930	      0.02789176	     -1.86961325	     -7.46901016	      0.00000000	      0.00000000	    -14.01380613	     -8.66204234	     18.11114579	     29.44836621	    -37.19114950	     33.18856412	    -32.07308464	    -61.85094752	     -0.55978093	     -1.07950268	    -23.36449181	      4.07509268	     -0.00000000	     -0.00000000	      0.00000000	      0.00000000	    -14.01380613	     -8.66204234	     18.11114579	     29.44836621	    -37.19114950	     33.18856411	    -32.07308464	    -61.85094752	     -0.55978093	     -1.07950268	    -23.36449181	      4.07509268	      0.00000000	      0.00000000	      0.00000000	      0.00000000	     -3.57108186	     19.00344564	      0.00000000	      0.00000000	      0.00000000	      0.00000000	     -0.63448071	     -7.52468010	     -0.00765898	     -0.20658577	      0.13306937	      0.41340450	     -0.19273083	      1.88975358	      0.09393051	     -0.20944412	      0.00000000	      0.00000000	      0.00000000	      0.00000000	     -0.63448071	     -7.52468010	     -0.00765898	     -0.20658577	      0.13306937	      0.41340450	     -0.19273083	      1.88975358	      0.09393051	     -0.20944412	      0.00000000	      0.00000000	      0.00000000	     -0.00000000	     -0.08742614	     -0.08742614	      0.10952426	     -0.08742614	     -0.08742614	      0.11253935	     -0.08742614	     -0.08742614	     -0.08742614	      0.08687159	     -0.08742614	     -0.08742614	      0.08165598	     -0.08742614	      0.09141108	     -0.08742614	      0.04162178	     -0.08742614	      0.04523778	     -0.08742614	      0.05731134	     -0.08742614	      0.03490384	     -0.08742614	     -0.08742614	     -0.08742614	     -0.08742614	     -0.08742614	     -0.08742614	     -0.08742614	     -0.08742614	     -0.08742614	      0.02926234	     -0.08742614	     -0.08742614	     -0.08742614	      0.04594542	     -0.08742614	      0.05053588	     -0.08742614	      0.00741558	     -0.08742614	     -0.08742614	      0.04809583	     -0.08742614	     -0.08742614	      0.06893665	     -0.08742614	      0.21438077	     -0.08742614	      0.03231803	     -0.08742614	      0.10583460	     -0.08742614	      0.08132394	     -0.08742614	      0.03512960	     -0.08742614	      0.05326189	     -0.08742614	      0.05782333	     -0.08742614	      0.06006469	     -0.08742614	     -0.08742614	      0.10952426	     -0.08742614	     -0.08742614	      0.11253935	     -0.08742614	     -0.08742614	     -0.08742614	      0.08687159	     -0.08742614	     -0.08742614	      0.08165598	     -0.08742614	      0.09141108	     -0.08742614	      0.04162178	     -0.08742614	      0.04523778	     -0.08742614	      0.05731134	     -0.08742614	      0.03490384	     -0.08742614	     -0.08742614	     -0.08742614	     -0.08742614	     -0.08742614	     -0.08742614	     -0.08742614	     -0.08742614	     -0.08742614	      0.02926234	     -0.08742614	     -0.08742614	     -0.08742614	      0.04594542	     -0.08742614	      0.05053588	     -0.08742614	      0.00741558	     -0.08742614	     -0.08742614	      0.04809583	     -0.08742614	     -0.08742614	      0.06893665	     -0.08742614	      0.21438077	     -0.08742614	      0.03231803	     -0.08742614	      0.10583460	     -0.08742614	      0.08132394	     -0.08742614	      0.03512960	     -0.08742614	      0.05326189	     -0.08742614	      0.05782333	     -0.08742614	      0.06006469
      0.75791118	      4.04294201	    -13.82717281	     -0.00000000	     -0.00000000	     -0.00000000	     -0.00000000	      0.01029287	      0.02791834	     -1.87860788	     -7.48090111	      0.00000000	      0.00000000	    -14.02420975	     -8.63096150	     18.14653138	     29.36577595	    -37.15111149	     33.35789695	    -32.14747380	    -61.79090427	     -0.56107926	     -1.07845473	    -23.35958642	      4.07804479	     -0.00000000	     -0.00000000	      0.00000000	      0.00000000	    -14.02420975	     -8.63096150	     18.14653138	     29.36577595	    -37.15111149	     33.35789695	    -32.14747380	    -61.79090427	     -0.56107926	     -1.07845473	    -23.35958642	      4.07804479	      0.00000000	      0.00000000	      0.00000000	      0.00000000	     -3.54817660	     19.06601839	      0.00000000	      0.00000000	      0.00000000	      0.00000000	     -0.64354579	     -7.54206474	     -0.00790790	     -0.20714313	      0.13356702	      0.41373736	     -0.19045278	      1.89645308	      0.09367771	     -0.21069431	      0.00000000	      0.00000000	      0.00000000	      0.00000000	     -0.64354579	     -7.54206474	     -0.00790790	     -0.20714313	      0.13356702	      0.41373736	     -0.19045278	      1.89645308	      0.09367771	     -0.21069431	      0.00000000	      0.00000000	      0.00000000	     -0.00000000	     -0.08758106	     -0.08758106	      0.10949568	     -0.08758106	     -0.08758106	      0.11252457	     -0.08758106	     -0.08758106	     -0.08758106	      0.08688529	     -0.08758106	     -0.08758106	      0.08165367	     -0.08758106	      0.09140866	     -0.08758106	      0.04162270	     -0.08758106	      0.04523920	     -0.08758106	      0.05731389	     -0.08758106	      0.03487704	     -0.08758106	     -0.08758106	     -0.08758106	     -0.08758106	     -0.08758106	     -0.08758106	     -0.08758106	     -0.08758106	     -0.08758106	      0.02929008	     -0.08758106	     -0.08758106	     -0.08758106	      0.04594604	     -0.08758106	      0.05053673	     -0.08758106	      0.00741455	     -0.08758106	     -0.08758106	      0.04803773	     -0.08758106	     -0.08758106	      0.06895161	     -0.08758106	      0.21439659	     -0.08758106	      0.03232124	     -0.08758106	      0.10583527	     -0.08758106	      0.08132117	     -0.08758106	      0.03513058	     -0.08758106	      0.05319870	     -0.08758106	      0.05777693	     -0.08758106	      0.06002190	     -0.08758106	     -0.08758106	      0.10949568	     -0.08758106	     -0.08758106	      0.11252457	     -0.08758106	     -0.08758106	     -0.08758106	      0.08688529	     -0.08758106	     -0.08758106	      0.08165367	     -0.08758106	      0.09140866	     -0.08758106	      0.04162270	     -0.08758106	      0.04523920	     -0.08758106	      0.05731389	     -0.08758106	      0.03487704	     -0.08758106	     -0.08758106	     -0.08758106	     -0.08758106	     -0.08758106	     -0.08758106	     -0.08758106	     -0.08758106	     -0.08758106	      0.02929008	     -0.08758106	     -0.08758106	     -0.08758106	      0.04594604	     -0.08758106	      0.05053673	     -0.08758106	      0.00741455	     -0.08758106	     -0.08758106	      0.04803773	     -0.08758106	     -0.08758106	      0.06895161	     -0.08758106	      0.21439659	     -0.08758106	      0.03232124	     -0.08758106	      0.10583527	     -0.08758106	      0.08132117	     -0.08758106	      0.03513058	     -0.08758106	      0.05319870	     -0.08758106	      0.05777693	     -0.08758106	      0.06002190
      0.75911448	      4.02627101	    -13.88209349	     -0.00000000	     -0.00000000	     -0.00000000	     -0.00000000	      0.01032648	      0.02794472	     -1.88761682	     -7.49279707	      0.00000000	      0.00000000	    -14.03457399	     -8.59472586	     18.18181736	     29.28273777	    -37.11086998	     33.52721491	    -32.22179025	    -61.72977587	     -0.56237633	     -1.07738784	    -23.35467513	      4.08611337	     -0.00000000	     -0.00000000	      0.00000000	      0.00000000	    -14.03457399	     -8.59472586	     18.18181736	     29.28273777	    -37.11086998	     33.52721491	    -32.22179025	    -61.72977587	     -0.56237633	     -1.07738784	    -23.35467513	      4.08611337	      0.00000000	      0.00000000	      0.00000000	      0.00000000	     -3.52519426	     19.13335031	      0.00000000	      0.00000000	      0.00000000	      0.00000000	     -0.65263214	     -7.56041326	     -0.00815751	     -0.20773369	      0.13406507	      0.41405680	     -0.18816648	      1.90364900	      0.09342337	     -0.21206054	      0.00000000	      0.00000000	      0.00000000	      0.00000000	     -0.65263214	     -7.56041326	     -0.00815751	     -0.20773369	      0.13406507	      0.41405680	     -0.18816648	      1.90364900	      0.09342337	     -0.21206054	      0.00000000	      0.00000000	      0.00000000	     -0.00000000	     -0.08773599	     -0.08773599	      0.10946713	     -0.08773599	     -0.08773599	      0.11250985	     -0.08773599	     -0.08773599	     -0.08773599	      0.08689897	     -0.08773599	     -0.08773599	      0.08165135	     -0.08773599	      0.09140623	     -0.08773599	      0.04162363	     -0.08773599	      0.04524062	     -0.08773599	      0.05731638	     -0.08773599	      0.03485012	     -0.08773599	     -0.08773599	     -0.08773599	     -0.08773599	     -0.08773599	     -0.08773599	     -0.08773599	     -0.08773599	     -0.08773599	      0.02931113	     -0.08773599	     -0.08773599	     -0.08773599	      0.04594667	     -0.08773599	      0.05053759	     -0.08773599	      0.00741351	     -0.08773599	     -0.08773599	      0.04797965	     -0.08773599	     -0.08773599	      0.06896654	     -0.08773599	      0.21441236	     -0.08773599	      0.03232446	     -0.08773599	      0.10583590	     -0.08773599	      0.08131839	     -0.08773599	      0.03513157	     -0.08773599	      0.05313558	     -0.08773599	      0.05773061	     -0.08773599	      0.05997919	     -0.08773599	     -0.08773599	      0.10946713	     -0.08773599	     -0.08773599	      0.11250985	     -0.08773599	     -0.08773599	     -0.08773599	      0.08689897	     -0.08773599	     -0.08773599	      0.08165135	     -0.08773599	      0.09140623	     -0.08773599	      0.04162363	     -0.08773599	      0.04524062	     -0.08773599	      0.05731638	     -0.08773599	      0.03485012	     -0.08773599	     -0.08773599	     -0.08773599	     -0.08773599	     -0.08773599	     -0.08773599	     -0.08773599	     -0.08773599	     -0.08773599	      0.02931113	     -0.08773599	     -0.08773599	     -0.08773599	      0.04594667	     -0.08773599	      0.05053759	     -0.08773599	      0.00741351	     -0.08773599	     -0.08773599	      0.04797965	     -0.08773599	     -0.08773599	      0.06896654	     -0.08773599	      0.21441236	     -0.08773599	      0.03232446	     -0.08773599	      0.10583590	     -0.08773599	      0.08131839	     -0.08773599	      0.03513157	     -0.08773599	      0.05313558	     -0.08773599	      0.05773061	     -0.08773599	      0.05997919
      0.76031778	      4.00953506	    -13.93423480	     -0.00000000	     -0.00000000	     -0.00000000	     -0.00000000	      0.01036013	      0.02797094	     -1.89664008	     -7.50468912	      0.00000000	      0.00000000	    -14.04489588	     -8.56162783	     18.21700329	     29.19953412	    -37.07042559	     33.69484038	    -32.29603309	    -61.66879658	     -0.56367211	     -1.07632355	    -23.34975185	      4.09685378	     -0.00000000	     -0.00000000	      0.00000000	      0.00000000	    -14.04489588	     -8.56162783	     18.21700329	     29.19953412	    -37.07042559	     33.69484038	    -32.29603309	    -61.66879658	     -0.56367211	     -1.07632355	    -23.34975185	      4.09685378	      0.00000000	      0.00000000	      0.00000000	      0.00000000	     -3.50213224	     19.19745493	      0.00000000	      0.00000000	      0.00000000	      0.00000000	     -0.66174029	     -7.57809169	     -0.00840782	     -0.20830174	      0.13456350	      0.41438018	     -0.18587165	      1.91051915	      0.09316741	     -0.21335319	      0.00000000	      0.00000000	      0.00000000	      0.00000000	     -0.66174029	     -7.57809169	     -0.00840782	     -0.20830174	      0.13456350	      0.41438018	     -0.18587165	      1.91051915	      0.09316741	     -0.21335319	      0.00000000	      0.00000000	      0.00000000	     -0.00000000	     -0.08789091	     -0.08789091	      0.10943863	     -0.08789091	     -0.08789091	      0.11249521	     -0.08789091	     -0.08789091	     -0.08789091	      0.08691264	     -0.08789091	     -0.08789091	      0.08164903	     -0.08789091	      0.09140380	     -0.08789091	      0.04162456	     -0.08789091	      0.04524204	     -0.08789091	      0.05731877	     -0.08789091	      0.03482309	     -0.08789091	     -0.08789091	     -0.08789091	     -0.08789091	     -0.08789091	     -0.08789091	     -0.08789091	     -0.08789091	     -0.08789091	      0.02933655	     -0.08789091	     -0.08789091	     -0.08789091	      0.04594730	     -0.08789091	      0.05053845	     -0.08789091	      0.00741249	     -0.08789091	     -0.08789091	      0.04792158	     -0.08789091	     -0.08789091	      0.06898144	     -0.08789091	      0.21442810	     -0.08789091	      0.03232769	     -0.08789091	      0.10583649	     -0.08789091	      0.08131561	     -0.08789091	      0.03513256	     -0.08789091	      0.05307253	     -0.08789091	      0.05768436	     -0.08789091	      0.05993656	     -0.08789091	     -0.08789091	      0.10943863	     -0.08789091	     -0.08789091	      0.11249521	     -0.08789091	     -0.08789091	     -0.08789091	      0.08691264	     -0.08789091	     -0.08789091	      0.08164903	     -0.08789091	      0.09140380	     -0.08789091	      0.04162456	     -0.08789091	      0.04524204	     -0.08789091	      0.05731877	     -0.08789091	      0.03482309	     -0.08789091	     -0.08789091	     -0.08789091	     -0.08789091	     -0.08789091	     -0.08789091	     -0.08789091	     -0.08789091	     -0.08789091	      0.02933655	     -0.08789091	     -0.08789091	     -0.08789091	      0.04594730	     -0.08789091	      0.05053845	     -0.08789091	      0.00741249	     -0.08789091	     -0.08789091	      0.04792158	     -0.08789091	     -0.08789091	      0.06898144	     -0.08789091	      0.21442810	     -0.08789091	      0.03232769	     -0.08789091	      0.10583649	     -0.08789091	      0.08131561	     -0.08789091	      0.03513256	     -0.08789091	      0.05307253	     -0.08789091	      0.05768436	     -0.08789091	      0.05993656
